<svg xmlns="http://www.w3.org/2000/svg" viewBox="0 0 48 48" name="lifeinsurance-circle" role="presentation" focusable="false" aria-labelledby="lifeinsurance-circle-title-1"><title id="lifeinsurance-circle-title-1">person shield icon</title><defs></defs><path d="M23.5078,22a3.5,3.5,0,1,1,3.5-3.5A3.5042,3.5042,0,0,1,23.5078,22Zm10.4346,3.4453a7.3951,7.3951,0,0,1-3.9346,7.4375,7.4,7.4,0,0,1-3.9355-7.4375,7.9377,7.9377,0,0,0,3.9355-1.38A7.9279,7.9279,0,0,0,33.9424,25.4453Zm-2.0811,2.4082-.707-.707L29.5078,28.793l-.6465-.6465-.707.707,1.3535,1.3535Zm-6.78-2.543.1044-.8339.4307-.01a7.1806,7.1806,0,0,0,1.3366-.17L25.332,23H21.7148l-3.707,3.707V33H28.3727A8.3488,8.3488,0,0,1,25.0811,25.3105ZM44,24A20,20,0,1,1,24,4,20,20,0,0,1,44,24Zm-9.0664,1.3125-.1045-.8359-.4307-.01a6.916,6.916,0,0,1-4.083-1.417l-.3076-.2412L29.7,23.05a6.5547,6.5547,0,0,1-1.5918.89l-2.1163-1.6932a4.5018,4.5018,0,1,0-4.9488.0107L17.0078,26.293V34h13l.22-.1074A8.4013,8.4013,0,0,0,34.9336,25.3125Z"></path></svg>